<svg xmlns="http://www.w3.org/2000/svg" width="66.624" height="66.624" viewBox="0 0 66.624 66.624">
  <g id="Group_59" data-name="Group 59" transform="translate(8094.686 -4681.097)">
    <path id="Exclusion_3" data-name="Exclusion 3" d="M19.029,38.056A19.033,19.033,0,0,1,11.622,1.5,19.033,19.033,0,0,1,26.435,36.561,18.908,18.908,0,0,1,19.029,38.056Zm-.172-23.374a3,3,0,0,0-3,3V27.54a3,3,0,0,0,3,3H19.2a3,3,0,0,0,3-3V17.683a3,3,0,0,0-3-3Zm0-7.4a3,3,0,0,0-3,3v.342a3,3,0,0,0,3,3H19.2a3,3,0,0,0,3-3v-.342a3,3,0,0,0-3-3Z" transform="translate(-8080.402 4695.38)" fill="#157cfc"/>
    <path id="Path_16" data-name="Path 16" d="M33.312,0A33.312,33.312,0,1,1,0,33.312,33.312,33.312,0,0,1,33.312,0Z" transform="translate(-8094.686 4681.097)" fill="#157cfc" opacity="0.179"/>
  </g>
</svg>
