<svg id="Group_12" data-name="Group 12" xmlns="http://www.w3.org/2000/svg" width="31.411" height="41.228" viewBox="0 0 31.411 41.228">
  <path id="Path_10" data-name="Path 10" d="M-156.754,607.093a8.246,8.246,0,0,0,8.246-8.246v-10.6A8.246,8.246,0,0,0-156.754,580,8.246,8.246,0,0,0-165,588.246v10.6A8.246,8.246,0,0,0-156.754,607.093Z" transform="translate(172.46 -580)" fill="#157cfc"/>
  <path id="Path_11" data-name="Path 11" d="M-139.922,596.356A2.356,2.356,0,0,0-142.278,594a2.357,2.357,0,0,0-2.356,2.356,11.007,11.007,0,0,1-10.994,10.994,11.007,11.007,0,0,1-10.994-10.994A2.357,2.357,0,0,0-168.977,594a2.356,2.356,0,0,0-2.356,2.356,15.716,15.716,0,0,0,13.35,15.51v2.159H-162.7a2.357,2.357,0,0,0-2.356,2.356,2.357,2.357,0,0,0,2.356,2.356h14.135a2.357,2.357,0,0,0,2.356-2.356,2.357,2.357,0,0,0-2.356-2.356h-4.712v-2.159A15.716,15.716,0,0,0-139.922,596.356Z" transform="translate(171.333 -577.509)" fill="#157cfc"/>
</svg>
