<svg id="noun_Phone_170052" xmlns="http://www.w3.org/2000/svg" width="40.72" height="40.725" viewBox="0 0 40.72 40.725">
  <path id="Path_4" data-name="Path 4" d="M21.585,12.805c.874.873,1.75,1.744,2.62,2.621a3.174,3.174,0,0,1,.009,4.886c-1.1,1.1-2.185,2.209-3.3,3.288a.676.676,0,0,0-.169.878,19.548,19.548,0,0,0,2.987,4.788,34.413,34.413,0,0,0,8.345,7.6c.693.435,1.459.751,2.18,1.143a.668.668,0,0,0,.923-.17c1.093-1.129,2.212-2.234,3.328-3.341a3.153,3.153,0,0,1,4.767,0q2.692,2.667,5.361,5.357a3.187,3.187,0,0,1-.02,4.856c-1.014,1.024-2.086,2-3.045,3.067a6.023,6.023,0,0,1-5.15,1.956,21.378,21.378,0,0,1-8.184-2.383A44.554,44.554,0,0,1,17.46,35.789a40.715,40.715,0,0,1-7.2-12,15.725,15.725,0,0,1-1.2-6.685,5.424,5.424,0,0,1,1.707-3.67c1.138-1.084,2.222-2.224,3.343-3.326a3.173,3.173,0,0,1,4.775,0C19.793,11,20.686,11.905,21.585,12.805Z" transform="translate(-9.027 -9.022)" fill="#157cfc"/>
</svg>
