<svg id="Group_11" data-name="Group 11" xmlns="http://www.w3.org/2000/svg" width="38.571" height="38.057" viewBox="0 0 38.571 38.057">
  <path id="Path_9" data-name="Path 9" d="M-148.118,445h-29.194A4.689,4.689,0,0,0-182,449.689v28.679a4.689,4.689,0,0,0,4.689,4.689h29.194a4.689,4.689,0,0,0,4.689-4.689V449.689A4.689,4.689,0,0,0-148.118,445Zm-29.194,4.629h29.194a.06.06,0,0,1,.06.06v20.092l-12-6.64a6.57,6.57,0,0,0-5.5-.4l-11.814,4.463V449.689A.06.06,0,0,1-177.311,449.629Z" transform="translate(182 -445)" fill="#157dfc"/>
  <circle id="Ellipse_3" data-name="Ellipse 3" cx="3.171" cy="3.171" r="3.171" transform="translate(8.457 8.457)" fill="#157dfc"/>
</svg>
