<svg xmlns="http://www.w3.org/2000/svg" width="38.057" height="38.057" viewBox="0 0 38.057 38.057">
  <path id="Exclusion_2" data-name="Exclusion 2" d="M19.028,38.057A19.033,19.033,0,0,1,11.622,1.5,19.033,19.033,0,0,1,26.435,36.562,18.91,18.91,0,0,1,19.028,38.057ZM10.18,22.505a1.976,1.976,0,0,0-1.4,3.373,14.509,14.509,0,0,0,20.491,0,1.976,1.976,0,0,0-2.794-2.8,10.546,10.546,0,0,1-14.9,0A1.964,1.964,0,0,0,10.18,22.505Zm15.19-11.934a3.172,3.172,0,1,0,3.172,3.171A3.175,3.175,0,0,0,25.371,10.571Zm-12.685,0a3.172,3.172,0,1,0,3.171,3.171A3.175,3.175,0,0,0,12.685,10.571Z" fill="#157dfc"/>
</svg>
